<?xml version="1.0" ?><!DOCTYPE svg  PUBLIC '-//W3C//DTD SVG 1.1//EN'  'http://www.w3.org/Graphics/SVG/1.1/DTD/svg11.dtd'>
<svg enable-background="new 0 0 91 91" fill="white" height="91px" id="Layer_1" version="1.1" viewBox="0 0 91 91" width="91px" xml:space="preserve"
    xmlns="http://www.w3.org/2000/svg"
    xmlns:xlink="http://www.w3.org/1999/xlink">
    <g>
        <path d="M72.771,30.157c-0.607-0.389-1.395-0.354-1.965,0.092l-14.07,11.014l-8.97-10.764c-0.646-0.773-1.966-0.775-2.611,0.002   l-8.967,10.762L22.114,30.249c-0.567-0.445-1.355-0.48-1.965-0.092c-0.607,0.387-0.903,1.119-0.737,1.822l5.972,25.209   c0.112,3.973,3.379,7.17,7.379,7.17h27.395c3.999,0,7.266-3.197,7.378-7.17l5.973-25.209   C73.675,31.276,73.379,30.544,72.771,30.157z M64.185,56.587c-0.029,0.127-0.045,0.26-0.045,0.391c0,2.195-1.786,3.98-3.981,3.98   H32.764c-2.196,0-3.982-1.785-3.982-3.98c0-0.131-0.016-0.264-0.046-0.391l-4.896-20.672l11.551,9.039   c0.724,0.57,1.767,0.457,2.354-0.25l8.716-10.461l8.719,10.463c0.586,0.703,1.629,0.818,2.354,0.248l11.549-9.039L64.185,56.587z"/>
        <path d="M45.257,45.929c-0.307,0.307-0.493,0.748-0.493,1.189c0,0.459,0.17,0.902,0.493,1.209c0.322,0.322,0.748,0.49,1.207,0.49   c0.441,0,0.884-0.168,1.207-0.49c0.305-0.307,0.492-0.75,0.492-1.209c0-0.441-0.188-0.883-0.492-1.189   C47.041,45.3,45.868,45.3,45.257,45.929z"/>
    </g>
</svg>