<?xml version="1.0" encoding="iso-8859-1"?>
<!-- Generator: Adobe Illustrator 16.0.0, SVG Export Plug-In . SVG Version: 6.00 Build 0)  -->
<!DOCTYPE svg PUBLIC "-//W3C//DTD SVG 1.1//EN" "http://www.w3.org/Graphics/SVG/1.1/DTD/svg11.dtd">
<svg version="1.1" id="Capa_1"
	xmlns="http://www.w3.org/2000/svg"
	xmlns:xlink="http://www.w3.org/1999/xlink" x="0px" y="0px" width="78.168px" height="78.167px" viewBox="0 0 78.168 78.167" style="enable-background:new 0 0 78.168 78.167;" xml:space="preserve" fill="white">
	<g>
		<g>
			<path d="M26.44,32.696v12.749c0,0.828,0.671,1.5,1.5,1.5h5.045v17.551c0,0.104,0.011,0.205,0.031,0.303
			c0.159,2.188,1.97,3.925,4.197,3.925c1.044,0,1.989-0.396,2.729-1.022c0.736,0.629,1.682,1.022,2.728,1.022
			c2.229,0,4.036-1.736,4.196-3.925c0.021-0.098,0.028-0.198,0.028-0.303V46.945h3.547c0.828,0,1.5-0.672,1.5-1.5V32.697
			c0-4.601-2.512-8.805-6.424-11.048c0.912-1.288,1.424-2.827,1.424-4.452c0-4.273-3.479-7.75-7.75-7.75
			c-4.274,0-7.75,3.477-7.75,7.75c0,1.625,0.51,3.163,1.422,4.452C28.951,23.892,26.44,28.095,26.44,32.696z M39.191,12.446
			c2.618,0,4.75,2.131,4.75,4.75c0,1.473-0.672,2.839-1.844,3.748c-0.212,0.164-0.434,0.307-0.664,0.43
			c-0.693,0.369-1.471,0.553-2.244,0.553c-0.517,0-1.033-0.082-1.526-0.245c-0.492-0.164-0.962-0.41-1.384-0.736
			c-1.17-0.909-1.842-2.275-1.842-3.748C34.44,14.576,36.571,12.446,39.191,12.446z M35.178,23.822
			c0.063,0.038,0.131,0.063,0.194,0.1c0.14,0.08,0.282,0.148,0.426,0.22c0.189,0.094,0.382,0.18,0.579,0.255
			c0.198,0.078,0.398,0.148,0.604,0.21c0.123,0.036,0.248,0.063,0.373,0.095c0.598,0.146,1.208,0.246,1.838,0.246
			c0.628,0,1.238-0.101,1.833-0.245c0.127-0.03,0.252-0.06,0.377-0.096c0.205-0.062,0.404-0.131,0.604-0.209
			c0.195-0.075,0.389-0.161,0.576-0.254c0.146-0.07,0.289-0.141,0.432-0.222c0.062-0.036,0.131-0.061,0.189-0.099
			c3.461,1.562,5.736,5.042,5.736,8.874v11.25h-3.545c-0.83,0-1.5,0.672-1.5,1.498v19.053c0,0.678-0.551,1.228-1.229,1.228
			s-1.229-0.55-1.229-1.228c0-0.828-0.672-1.5-1.5-1.5c-0.828,0-1.5,0.672-1.5,1.5c0,0.678-0.55,1.228-1.227,1.228
			c-0.678,0-1.229-0.55-1.229-1.228V45.445c0-0.826-0.671-1.498-1.5-1.498h-0.795h-4.25v-11.25
			C29.44,28.864,31.718,25.387,35.178,23.822z"/>
			<path d="M73.092,64.798c0.02-0.098,0.031-0.198,0.031-0.303V46.943h3.545c0.828,0,1.5-0.672,1.5-1.5V32.695
			c0-4.602-2.512-8.805-6.422-11.049c0.912-1.288,1.422-2.826,1.422-4.451c0-4.273-3.477-7.75-7.75-7.75s-7.75,3.477-7.75,7.75
			c0,1.625,0.509,3.163,1.421,4.451c-3.909,2.243-6.421,6.446-6.421,11.049v12.748c0,0.828,0.671,1.5,1.5,1.5h5.045v17.553
			c0,0.104,0.012,0.205,0.031,0.303c0.158,2.188,1.97,3.925,4.197,3.925c1.043,0,1.985-0.396,2.727-1.022
			c0.738,0.631,1.684,1.022,2.727,1.022C71.121,68.723,72.934,66.984,73.092,64.798z M65.418,12.446c2.619,0,4.75,2.131,4.75,4.75
			c0,1.472-0.672,2.838-1.842,3.748c-1.688,1.312-4.129,1.311-5.816,0c-1.17-0.909-1.842-2.275-1.842-3.748
			C60.668,14.576,62.799,12.446,65.418,12.446z M68.895,65.723c-0.677,0-1.227-0.552-1.227-1.228c0-0.828-0.672-1.5-1.5-1.5
			c-0.829,0-1.5,0.672-1.5,1.5c0,0.676-0.551,1.228-1.229,1.228s-1.229-0.552-1.229-1.228V45.443c0-0.826-0.672-1.498-1.5-1.498
			h-0.796h-4.25v-11.25c0-3.832,2.277-7.311,5.738-8.874c0.062,0.038,0.131,0.063,0.193,0.1c0.141,0.08,0.282,0.149,0.428,0.221
			c0.188,0.093,0.379,0.179,0.574,0.253c0.199,0.079,0.401,0.149,0.607,0.212c0.119,0.035,0.238,0.063,0.359,0.093
			c0.603,0.147,1.213,0.248,1.848,0.248c0.634,0,1.248-0.104,1.849-0.249c0.119-0.029,0.237-0.056,0.354-0.089
			c0.209-0.063,0.41-0.135,0.613-0.215c0.192-0.073,0.381-0.158,0.567-0.25c0.146-0.071,0.292-0.143,0.435-0.224
			c0.063-0.036,0.131-0.061,0.191-0.099c3.46,1.563,5.736,5.042,5.736,8.874v11.249h-3.545c-0.83,0-1.5,0.674-1.5,1.5v19.051
			C70.121,65.171,69.572,65.723,68.895,65.723z"/>
			<path d="M16.228,68.723c2.227,0,4.038-1.736,4.197-3.925c0.02-0.098,0.03-0.198,0.03-0.303V46.943H24c0.829,0,1.5-0.672,1.5-1.5
			V32.695c0-4.603-2.511-8.806-6.421-11.049c0.912-1.287,1.421-2.826,1.421-4.451c0-4.273-3.477-7.75-7.75-7.75
			c-4.272,0-7.75,3.477-7.75,7.75c0,1.625,0.511,3.163,1.423,4.451C2.513,23.89,0,28.093,0,32.695v12.748c0,0.828,0.672,1.5,1.5,1.5
			h5.046v17.553c0,0.104,0.011,0.205,0.03,0.303c0.159,2.188,1.971,3.925,4.197,3.925c1.044,0,1.989-0.396,2.727-1.022
			C14.238,68.328,15.184,68.723,16.228,68.723z M12.75,12.446c2.619,0,4.75,2.131,4.75,4.75c0,1.473-0.671,2.839-1.842,3.748
			c-0.843,0.654-1.875,0.981-2.906,0.981c-0.517,0-1.032-0.082-1.525-0.245c-0.493-0.164-0.962-0.41-1.383-0.736
			c-1.171-0.91-1.842-2.276-1.842-3.748C8,14.576,10.132,12.446,12.75,12.446z M10.773,65.723c-0.677,0-1.228-0.552-1.228-1.228
			V45.443c0-0.826-0.672-1.498-1.5-1.498H7.249h-4.25v-11.25c0-3.832,2.277-7.311,5.737-8.874c0.063,0.038,0.131,0.063,0.195,0.1
			c0.139,0.08,0.282,0.148,0.425,0.22c0.19,0.094,0.382,0.18,0.579,0.255c0.199,0.078,0.399,0.148,0.604,0.21
			c0.123,0.036,0.248,0.064,0.373,0.095c0.598,0.146,1.207,0.246,1.837,0.246s1.238-0.102,1.836-0.245
			c0.126-0.03,0.252-0.06,0.377-0.096c0.203-0.062,0.402-0.131,0.601-0.209c0.197-0.075,0.39-0.162,0.58-0.255
			c0.143-0.069,0.286-0.14,0.425-0.22c0.063-0.036,0.132-0.062,0.194-0.1c3.46,1.563,5.736,5.042,5.736,8.874v11.249h-3.544
			c-0.829,0-1.5,0.674-1.5,1.5v19.051c0,0.678-0.551,1.228-1.228,1.228c-0.677,0-1.229-0.55-1.229-1.228c0-0.828-0.671-1.5-1.5-1.5
			c-0.828,0-1.5,0.672-1.5,1.5C12,65.171,11.449,65.723,10.773,65.723z"/>
		</g>
	</g>
	<g>
	</g>
	<g>
	</g>
	<g>
	</g>
	<g>
	</g>
	<g>
	</g>
	<g>
	</g>
	<g>
	</g>
	<g>
	</g>
	<g>
	</g>
	<g>
	</g>
	<g>
	</g>
	<g>
	</g>
	<g>
	</g>
	<g>
	</g>
	<g>
	</g>
</svg>
