<?xml version="1.0" encoding="iso-8859-1"?>
<!-- Generator: Adobe Illustrator 17.1.0, SVG Export Plug-In . SVG Version: 6.00 Build 0)  -->
<!DOCTYPE svg PUBLIC "-//W3C//DTD SVG 1.1//EN" "http://www.w3.org/Graphics/SVG/1.1/DTD/svg11.dtd">
<svg version="1.1" id="Capa_1"
	xmlns="http://www.w3.org/2000/svg"
	xmlns:xlink="http://www.w3.org/1999/xlink" x="0px" y="0px" viewBox="0 0 190.568 190.568" style="enable-background:new 0 0 190.568 190.568;" xml:space="preserve">
	<path style="fill:#fff;" d="M166.409,190.568c-1.381,0-2.5-1.119-2.5-2.5v-6.792H27.117v6.667c0,1.381-1.119,2.5-2.5,2.5
	s-2.5-1.119-2.5-2.5v-6.667H11.951c-1.381,0-2.5-1.119-2.5-2.5V69.443c0-1.381,1.119-2.5,2.5-2.5h55.18
	c1.128-3.448,2.976-6.519,5.352-9.058L20.98,4.231c-0.956-0.996-0.924-2.579,0.072-3.535c0.996-0.954,2.577-0.924,3.535,0.072
	l51.674,53.835c3.991-2.801,8.842-4.41,14.022-4.41c5.691,0,10.986,1.943,15.179,5.273c0.098-0.145,0.212-0.281,0.343-0.407
	l55.477-53.25c0.996-0.955,2.577-0.924,3.535,0.072c0.956,0.996,0.924,2.579-0.072,3.535l-55.477,53.25
	c-0.09,0.086-0.185,0.165-0.283,0.234c1.944,2.327,3.472,5.041,4.453,8.042h65.179c1.381,0,2.5,1.119,2.5,2.5v109.333
	c0,1.381-1.119,2.5-2.5,2.5h-9.708v6.792C168.909,189.449,167.79,190.568,166.409,190.568z M24.617,176.276h151.5V71.943H14.451
	v104.333H24.617z M72.466,66.943h35.636c-2.997-7.053-9.928-11.75-17.818-11.75c-4.675,0-9.012,1.648-12.395,4.458
	c-0.039,0.044-0.081,0.087-0.124,0.129c-0.112,0.107-0.232,0.202-0.357,0.285C75.303,61.934,73.602,64.269,72.466,66.943z
	 M150.284,167.276c-6.434,0-11.667-5.233-11.667-11.666c0-6.434,5.233-11.667,11.667-11.667s11.667,5.233,11.667,11.667
	C161.951,162.042,156.717,167.276,150.284,167.276z M150.284,148.943c-3.676,0-6.667,2.991-6.667,6.667s2.991,6.666,6.667,6.666
	s6.667-2.99,6.667-6.666S153.96,148.943,150.284,148.943z M111.117,167.276h-74c-8.271,0-15-6.729-15-15V95.943
	c0-8.271,6.729-15,15-15h74c8.271,0,15,6.729,15,15v56.333C126.117,160.547,119.388,167.276,111.117,167.276z M37.117,85.943
	c-5.514,0-10,4.486-10,10v56.333c0,5.514,4.486,10,10,10h74c5.514,0,10-4.486,10-10V95.943c0-5.514-4.486-10-10-10H37.117z
	 M164.284,133.276h-28c-1.381,0-2.5-1.119-2.5-2.5s1.119-2.5,2.5-2.5h28c1.381,0,2.5,1.119,2.5,2.5S165.665,133.276,164.284,133.276
	z M164.284,121.443h-28c-1.381,0-2.5-1.119-2.5-2.5s1.119-2.5,2.5-2.5h28c1.381,0,2.5,1.119,2.5,2.5
	S165.665,121.443,164.284,121.443z M164.284,109.61h-28c-1.381,0-2.5-1.119-2.5-2.5s1.119-2.5,2.5-2.5h28c1.381,0,2.5,1.119,2.5,2.5
	S165.665,109.61,164.284,109.61z M164.284,97.776h-28c-1.381,0-2.5-1.119-2.5-2.5s1.119-2.5,2.5-2.5h28c1.381,0,2.5,1.119,2.5,2.5
	S165.665,97.776,164.284,97.776z M164.284,85.943h-28c-1.381,0-2.5-1.119-2.5-2.5s1.119-2.5,2.5-2.5h28c1.381,0,2.5,1.119,2.5,2.5
	S165.665,85.943,164.284,85.943z"/>
	<g>
	</g>
	<g>
	</g>
	<g>
	</g>
	<g>
	</g>
	<g>
	</g>
	<g>
	</g>
	<g>
	</g>
	<g>
	</g>
	<g>
	</g>
	<g>
	</g>
	<g>
	</g>
	<g>
	</g>
	<g>
	</g>
	<g>
	</g>
	<g>
	</g>
</svg>
